<svg width="127" height="17" viewBox="0 0 127 17" fill="none" xmlns="http://www.w3.org/2000/svg">
<g clip-path="url(#clip0)">
<path fill-rule="evenodd" clip-rule="evenodd" d="M104.761 15.9501V10.3281C104.761 8.83006 104.355 7.66044 103.544 6.81928C102.732 5.97812 101.434 5.56592 99.6507 5.58266C98.8173 5.56825 97.985 5.65073 97.172 5.82831C96.9903 5.86688 96.8107 5.9144 96.634 5.97068C95.5437 6.33078 95.292 6.59317 95.5784 7.5646C95.6131 7.67068 95.5957 7.61764 95.6333 7.72371C95.9486 8.72864 96.0035 8.8403 97.2009 8.49416C97.3073 8.46309 97.4155 8.43793 97.5249 8.41879C98.0697 8.30844 98.6255 8.25602 99.1822 8.26247C99.9939 8.26247 100.606 8.43461 101.019 8.77889C101.233 8.96932 101.399 9.20359 101.507 9.46445C101.615 9.72531 101.66 10.0061 101.641 10.2863V10.4705C101.225 10.3324 100.8 10.2223 100.368 10.1411C99.8644 10.0514 99.3529 10.0093 98.8409 10.0155C98.2099 10.0091 97.5808 10.0823 96.9696 10.2332C96.4495 10.3605 95.9589 10.5811 95.5234 10.8836C95.1234 11.167 94.7992 11.5383 94.5776 11.9667C94.3398 12.4562 94.223 12.9923 94.2364 13.5327C94.2208 14.0477 94.3267 14.5593 94.5458 15.029C94.7456 15.4375 95.0335 15.8002 95.3904 16.0925C95.7541 16.3878 96.1748 16.6108 96.6283 16.7485C97.1227 16.8961 97.6378 16.9696 98.1554 16.9662C98.8512 16.9846 99.5426 16.854 100.18 16.5838C100.722 16.3387 101.209 15.9924 101.612 15.5649C101.612 15.7073 101.612 15.8692 101.612 15.992C101.619 16.1966 101.709 16.3903 101.863 16.5316C102.016 16.673 102.221 16.7508 102.433 16.7485H103.957C104.066 16.7482 104.173 16.7268 104.273 16.6856C104.372 16.6444 104.462 16.5842 104.538 16.5086C104.613 16.4331 104.671 16.3437 104.71 16.2458C104.748 16.1479 104.766 16.0436 104.761 15.939V15.9501ZM101.684 12.8405C101.689 13.1096 101.629 13.3761 101.508 13.6185C101.387 13.861 101.208 14.0726 100.987 14.2362C100.456 14.6232 99.8032 14.8205 99.1388 14.7945C98.6834 14.8148 98.2336 14.6913 97.8575 14.4428C97.6968 14.3306 97.5677 14.1814 97.4818 14.0089C97.3959 13.8363 97.3561 13.6458 97.3658 13.4546C97.3492 13.2255 97.3959 12.9963 97.5011 12.7903C97.6063 12.5844 97.7662 12.409 97.9645 12.2822C98.4607 11.9972 99.0336 11.8611 99.6102 11.8914C99.9875 11.8896 100.364 11.928 100.732 12.0058C101.059 12.0737 101.378 12.1738 101.684 12.3045V12.8405Z" fill="#4132E5"/>
<path fill-rule="evenodd" clip-rule="evenodd" d="M91.9544 14.1636L91.7809 13.9934C91.0058 13.3039 91.0289 13.2425 89.6811 13.9766C89.2427 14.1985 88.753 14.309 88.2581 14.2976C87.846 14.3018 87.4378 14.2209 87.0607 14.0604C86.7112 13.903 86.3991 13.6778 86.1438 13.3988C85.8866 13.116 85.69 12.7867 85.5654 12.4301C85.4287 12.0448 85.3603 11.6399 85.3629 11.2326V11.1907C85.3609 10.7944 85.4294 10.4007 85.5654 10.0267C85.6935 9.67418 85.8898 9.34833 86.1438 9.06643C86.385 8.79568 86.68 8.5745 87.0115 8.41602C87.3615 8.25418 87.7457 8.17296 88.1337 8.17875C88.6431 8.16217 89.148 8.27581 89.5972 8.50814C90.8235 9.17809 90.864 9.23671 91.5698 8.53605L91.9139 8.17875C92.5126 7.50042 92.7151 7.12078 91.6507 6.42013C91.3958 6.25107 91.128 6.10084 90.8496 5.9707C90.0001 5.61507 89.0794 5.4463 88.154 5.47661C87.3214 5.46669 86.4955 5.62154 85.7273 5.93162C85.0181 6.21875 84.3752 6.63911 83.8358 7.16824C83.3038 7.69734 82.8834 8.32116 82.5979 9.00502C82.2961 9.71324 82.1437 10.4724 82.1496 11.2382V11.2801C82.1319 12.4016 82.4635 13.5024 83.1014 14.4401C83.7392 15.3777 84.654 16.109 85.7273 16.5392C86.4821 16.8469 87.2942 17.0018 88.1135 16.9942C89.0728 17.0348 90.0274 16.8428 90.8901 16.4359C91.1548 16.2941 91.4107 16.1375 91.6565 15.9669C92.6544 15.2244 92.6486 14.8113 91.9544 14.1636Z" fill="#4132E5"/>
<path fill-rule="evenodd" clip-rule="evenodd" d="M59.2573 11.5315C59.2682 10.7529 59.1561 9.9773 58.9247 9.23135C58.7169 8.53354 58.369 7.88194 57.9008 7.31362C57.4318 6.75106 56.8391 6.29623 56.1655 5.98209C55.3893 5.63649 54.5413 5.46746 53.6868 5.488C52.9212 5.47754 52.1619 5.62276 51.4582 5.91421C50.7546 6.20567 50.1225 6.63682 49.6029 7.17963C49.0991 7.71483 48.7063 8.33836 48.446 9.01641C48.1656 9.72963 48.0244 10.4868 48.0295 11.2496V11.2914C48.0173 12.0858 48.1697 12.8745 48.4778 13.6112C48.7632 14.2886 49.1883 14.9031 49.7273 15.4172C50.2704 15.932 50.9185 16.3321 51.6304 16.5924C52.391 16.873 53.1994 17.0132 54.0136 17.0056C54.9504 17.0239 55.879 16.8329 56.7266 16.4473C57.1411 16.2502 57.5296 16.0055 57.8835 15.7187C58.0093 15.6438 58.1138 15.5398 58.1875 15.4161C58.2613 15.2925 58.302 15.1531 58.3061 15.0105C58.3101 14.8678 58.2772 14.7265 58.2105 14.5992C58.1438 14.4718 58.0454 14.3625 57.924 14.2811L57.6145 14.002C56.8799 13.519 56.7237 13.5079 55.8791 14.002C55.7583 14.0733 55.6316 14.1349 55.5002 14.1862C55.0432 14.3742 54.5509 14.4693 54.0541 14.4653C53.3967 14.4852 52.752 14.2883 52.2262 13.907C51.7079 13.4999 51.3613 12.9242 51.2515 12.288H57.6145C58.6181 12.288 59.2544 12.2713 59.2631 11.5036L59.2573 11.5315ZM56.0932 10.3563H51.1936C51.2864 9.72154 51.5746 9.1283 52.0208 8.65352C52.235 8.44047 52.4932 8.27342 52.7788 8.16327C53.0644 8.05312 53.3708 8.00235 53.6781 8.01427C53.9839 8.00034 54.2892 8.05024 54.5732 8.16055C54.8573 8.27087 55.1133 8.43902 55.3238 8.65352C55.7572 9.13024 56.0261 9.72538 56.0932 10.3563Z" fill="#4132E5"/>
<path fill-rule="evenodd" clip-rule="evenodd" d="M30.317 15.2609V15.166C30.317 13.9043 30.3546 13.8903 29.4666 14.0941C29.2188 14.147 28.9656 14.1732 28.7117 14.1722C28.0157 14.1722 27.6667 13.8149 27.6647 13.1003V8.02265H29.5013C29.6141 8.02525 29.7262 8.00611 29.8312 7.96635C29.9362 7.92659 30.0319 7.867 30.1127 7.79109C30.1935 7.71518 30.2578 7.62446 30.3018 7.52426C30.3458 7.42406 30.3687 7.31638 30.369 7.20754V6.16075C30.3691 6.0518 30.3465 5.94395 30.3026 5.84357C30.2587 5.74319 30.1944 5.65233 30.1135 5.57634C30.0326 5.50035 29.9368 5.44078 29.8316 5.40116C29.7265 5.36153 29.6142 5.34265 29.5013 5.34564H27.6647V3.11247C27.6647 2.89629 27.5758 2.68896 27.4174 2.5361C27.259 2.38324 27.0442 2.29736 26.8202 2.29736H25.2613C25.0373 2.29736 24.8225 2.38324 24.6641 2.5361C24.5057 2.68896 24.4167 2.89629 24.4167 3.11247V13.6167C24.3997 14.1598 24.483 14.7014 24.6626 15.2162C24.8033 15.6032 25.0372 15.9524 25.3451 16.2351C25.6401 16.503 26.0002 16.695 26.3921 16.7934C26.8364 16.9016 27.2933 16.9541 27.7515 16.9497C28.2398 16.9583 28.7268 16.8991 29.1976 16.7739L29.4551 16.6929C30.3025 16.3859 30.317 16.1653 30.317 15.2609Z" fill="#4132E5"/>
<path fill-rule="evenodd" clip-rule="evenodd" d="M7.19046 2.20801C6.11164 2.20801 6.0509 2.38945 5.63731 3.32459L0.364681 15.2888C-0.288974 16.7487 -0.147252 16.7487 1.40301 16.7487H1.6315C2.78841 16.7487 3.04872 16.8074 3.54908 15.6321L4.4428 13.519H10.7595L11.6504 15.6321C12.1478 16.8129 12.4371 16.7683 13.5708 16.7487H13.7993C15.3496 16.7487 15.4826 16.7487 14.8376 15.286L9.56502 3.33018C9.14853 2.38945 9.09069 2.21359 8.01187 2.21359L7.19046 2.20801ZM5.61995 10.708L7.60116 6.03789L9.58238 10.708H5.61995Z" fill="#4132E5"/>
<path d="M19.8586 5.32568H18.2996C17.8332 5.32568 17.4551 5.69062 17.4551 6.14079V15.936C17.4551 16.3862 17.8332 16.7511 18.2996 16.7511H19.8586C20.325 16.7511 20.7031 16.3862 20.7031 15.936V6.14079C20.7031 5.69062 20.325 5.32568 19.8586 5.32568Z" fill="#4132E5"/>
<path fill-rule="evenodd" clip-rule="evenodd" d="M34.4182 2.31104H40.411C42.1927 2.31104 43.5791 2.73068 44.5701 3.56998C45.5612 4.40928 46.0558 5.57798 46.0539 7.07606C46.0539 8.12007 45.8456 9.13337 45.1688 9.9736C44.5711 10.7136 43.7691 11.2757 42.855 11.5954L45.1197 14.8084C45.9555 15.9836 46.5658 16.7624 45.1399 16.7624H43.7343C42.6959 16.7624 42.5456 16.6117 41.9758 15.791L39.445 12.1426H36.8593V15.9362C36.8578 16.1497 36.7699 16.3542 36.6142 16.506C36.4586 16.6578 36.2476 16.7448 36.0263 16.7485H34.4182C34.194 16.7485 33.9789 16.6627 33.82 16.5099C33.6612 16.3571 33.5716 16.1498 33.5708 15.9334V3.12614C33.5716 2.90971 33.6612 2.70239 33.82 2.5496C33.9789 2.39682 34.194 2.31103 34.4182 2.31104ZM36.8651 5.17787V9.32598H40.2028C40.8766 9.36912 41.5431 9.17027 42.0741 8.76769C42.29 8.58218 42.4607 8.35278 42.5737 8.09598C42.6867 7.83919 42.7393 7.56141 42.7278 7.28263C42.7531 6.9843 42.7041 6.68445 42.5848 6.40813C42.4656 6.13181 42.2796 5.88705 42.0423 5.69429C41.4856 5.32152 40.8155 5.13968 40.1392 5.17787H36.8651Z" fill="#4132E5"/>
<path d="M64.2496 2.31641H62.6443C62.1779 2.31641 61.7998 2.68134 61.7998 3.13151V15.9415C61.7998 16.3917 62.1779 16.7566 62.6443 16.7566H64.2496C64.716 16.7566 65.0941 16.3917 65.0941 15.9415V3.13151C65.0941 2.68134 64.716 2.31641 64.2496 2.31641Z" fill="#4132E5"/>
<path fill-rule="evenodd" clip-rule="evenodd" d="M113.754 15.2609V15.166C113.754 13.9043 113.794 13.8903 112.903 14.0913C112.657 14.1465 112.404 14.1737 112.151 14.1722C111.451 14.1722 111.104 13.8149 111.104 13.1003V8.02265H112.953C113.177 8.02118 113.391 7.93445 113.549 7.7813C113.707 7.62815 113.796 7.42097 113.797 7.20475V6.16075C113.796 5.94479 113.707 5.73789 113.549 5.58519C113.391 5.43249 113.176 5.34637 112.953 5.34564H111.104V3.11247C111.104 2.89603 111.014 2.68871 110.855 2.53593C110.696 2.38315 110.481 2.29736 110.257 2.29736H108.701C108.477 2.29736 108.262 2.38315 108.103 2.53593C107.944 2.68871 107.854 2.89603 107.853 3.11247V13.6167C107.838 14.1588 107.921 14.6993 108.099 15.2135C108.241 15.6013 108.476 15.9513 108.785 16.2351C109.079 16.5036 109.44 16.6957 109.832 16.7934C110.275 16.9016 110.731 16.9541 111.188 16.9497C111.672 16.9572 112.154 16.898 112.62 16.7739L112.88 16.6929C113.742 16.3859 113.754 16.1653 113.754 15.2609Z" fill="#4132E5"/>
<path fill-rule="evenodd" clip-rule="evenodd" d="M127 11.5315C127.013 10.7538 126.906 9.9786 126.682 9.23135C126.473 8.53338 126.124 7.88179 125.655 7.31362C125.186 6.75139 124.593 6.29663 123.92 5.98209C123.144 5.63649 122.296 5.46746 121.441 5.488C120.675 5.47684 119.916 5.62174 119.212 5.91324C118.508 6.20473 117.876 6.63626 117.357 7.17963C116.853 7.71496 116.461 8.33845 116.2 9.01641C115.92 9.72963 115.779 10.4868 115.784 11.2496V11.2914C115.773 12.0857 115.925 12.8741 116.232 13.6112C116.52 14.2883 116.945 14.9025 117.484 15.4172C118.027 15.9316 118.674 16.3318 119.385 16.5924C120.145 16.8728 120.954 17.013 121.768 17.0056C122.706 17.0244 123.635 16.8333 124.484 16.4473C124.898 16.2495 125.286 16.0049 125.641 15.7187C125.766 15.6438 125.871 15.5398 125.945 15.4161C126.018 15.2925 126.059 15.1531 126.063 15.0105C126.067 14.8678 126.034 14.7265 125.968 14.5992C125.901 14.4718 125.803 14.3625 125.681 14.2811L125.372 14.002C124.637 13.519 124.481 13.5079 123.636 14.002C123.516 14.0733 123.391 14.1349 123.26 14.1862C122.803 14.3736 122.311 14.4686 121.814 14.4653C121.157 14.4852 120.512 14.2883 119.986 13.907C119.468 13.5003 119.122 12.9242 119.014 12.288H125.377C126.378 12.288 127.017 12.2713 127.026 11.5036L127 11.5315ZM123.836 10.3563H118.939C119.032 9.72225 119.319 9.12941 119.764 8.65352C119.977 8.44005 120.236 8.27271 120.521 8.16253C120.807 8.05235 121.113 8.00182 121.421 8.01427C121.727 8.00053 122.032 8.05051 122.316 8.16081C122.6 8.27112 122.856 8.43917 123.066 8.65352C123.499 9.13084 123.768 9.72566 123.836 10.3563Z" fill="#4132E5"/>
<path fill-rule="evenodd" clip-rule="evenodd" d="M68.6685 8.34902C69.2033 7.45512 69.9787 6.71749 70.9126 6.21427C71.8464 5.71105 72.9039 5.46099 73.9729 5.49057C75.0691 5.52127 76.0178 5.69713 76.388 5.07743C76.7582 4.45772 76.3677 3.96084 76.226 3.01733C76.1709 2.65965 76.1926 2.29486 76.2897 1.94561C76.3869 1.59636 76.5574 1.27011 76.7906 0.987124C77.0239 0.704141 77.3149 0.470466 77.6457 0.300613C77.9765 0.13076 78.3399 0.0283557 78.7134 -0.000239331C79.2939 -0.0424886 79.8734 0.0928036 80.3698 0.386435C80.8661 0.680066 81.254 1.11712 81.4784 1.63556C81.6154 1.95836 81.6849 2.30414 81.6828 2.65298C81.6807 3.00181 81.6071 3.34679 81.4662 3.66804C81.3253 3.98928 81.1199 4.28044 80.8619 4.52473C80.6039 4.76902 80.2983 4.9616 79.9628 5.09139C79.0489 5.44311 78.4039 5.37053 78.0337 5.98465C77.6635 6.59878 78.294 7.30781 78.8696 8.21782C79.4159 9.08028 79.7159 10.067 79.7391 11.0776C79.7623 12.0882 79.5078 13.0868 79.0016 13.9717C78.4953 14.8567 77.7553 15.5965 76.8567 16.1159C75.9582 16.6354 74.9332 16.916 73.8859 16.9291C72.8386 16.9423 71.8063 16.6876 70.8941 16.191C69.9818 15.6943 69.222 14.9734 68.692 14.1015C68.162 13.2296 67.8806 12.2378 67.8765 11.2269C67.8724 10.2161 68.1456 9.22214 68.6685 8.34623V8.34902ZM71.6128 9.97365C71.36 10.395 71.2424 10.8793 71.2749 11.3652C71.3075 11.8512 71.4889 12.3168 71.7959 12.7032C72.103 13.0895 72.522 13.3792 72.9998 13.5355C73.4777 13.6918 73.9928 13.7077 74.48 13.5811C74.9672 13.4545 75.4045 13.1912 75.7365 12.8246C76.0684 12.4579 76.2802 12.0044 76.3448 11.5214C76.4095 11.0385 76.3241 10.5479 76.0996 10.1119C75.875 9.67583 75.5214 9.31391 75.0836 9.07201C74.4992 8.74833 73.8057 8.66147 73.1551 8.83049C72.5045 8.99951 71.9499 9.4106 71.6128 9.97365Z" fill="url(#paint0_linear)"/>
</g>
<defs>
<linearGradient id="paint0_linear" x1="71.7401" y1="14.5628" x2="79.5977" y2="0.935019" gradientUnits="userSpaceOnUse">
<stop stop-color="#3F35E1"/>
<stop offset="1" stop-color="#BC6DFF"/>
</linearGradient>
<clipPath id="clip0">
<rect width="127" height="17" fill="white"/>
</clipPath>
</defs>
</svg>
